<svg width="27" height="26" viewBox="0 0 27 26" fill="none" xmlns="http://www.w3.org/2000/svg">
<rect x="0.5" width="26" height="26" rx="13" fill="#6CEA8F"/>
<path d="M19.1397 7.00121C18.9458 7.00991 18.7633 7.06428 18.601 7.12518H18.5987C18.4342 7.18826 17.652 7.5058 16.4641 7.98646C15.2761 8.46929 13.7343 9.09567 12.2038 9.71771C9.14722 10.9596 6.1425 12.1819 6.1425 12.1819L6.17856 12.1689C6.17856 12.1689 5.97118 12.2341 5.75479 12.3777C5.64434 12.4473 5.52262 12.5429 5.41667 12.693C5.31073 12.8431 5.22507 13.0736 5.25663 13.3107C5.30848 13.7131 5.57897 13.9545 5.77282 14.0872C5.96893 14.222 6.15602 14.2851 6.15602 14.2851H6.16053L8.97817 15.2007C9.1044 15.5922 9.83698 17.915 10.0128 18.4501C10.1165 18.7698 10.2179 18.9699 10.3442 19.1221C10.405 19.2004 10.4771 19.2657 10.5628 19.3179C10.5966 19.3374 10.6327 19.3527 10.6687 19.3657C10.68 19.3722 10.6913 19.3744 10.7048 19.3766L10.6755 19.3701C10.6845 19.3722 10.6913 19.3788 10.6981 19.3809C10.7206 19.3875 10.7364 19.3896 10.7657 19.394C11.212 19.5245 11.5704 19.257 11.5704 19.257L11.5907 19.2418L13.2542 17.7802L16.0425 19.8442L16.1057 19.8703C16.6872 20.1161 17.2755 19.9791 17.5866 19.7376C17.8999 19.494 18.0217 19.183 18.0217 19.183L18.0419 19.133L20.1969 8.48234C20.2577 8.21918 20.2735 7.97341 20.2059 7.73416C20.1383 7.49492 19.9647 7.2709 19.7551 7.15128C19.5432 7.02948 19.3335 6.99251 19.1397 7.00121ZM19.0811 8.14305C19.0788 8.17785 19.0856 8.1735 19.0698 8.24092V8.24745L16.9352 18.7872C16.9262 18.8024 16.9104 18.835 16.8675 18.8677C16.8225 18.9025 16.7864 18.9242 16.5993 18.8524L13.1888 16.3295L11.1286 18.1412L11.5614 15.4748C11.5614 15.4748 16.9036 10.6703 17.1335 10.4637C17.3635 10.2571 17.2868 10.2136 17.2868 10.2136C17.3026 9.9613 16.9397 10.1396 16.9397 10.1396L9.91362 14.3394L9.91137 14.3286L6.54373 13.2346V13.2324C6.54147 13.2324 6.53696 13.2302 6.53471 13.2302C6.53696 13.2302 6.55274 13.2237 6.55274 13.2237L6.57078 13.215L6.58881 13.2085C6.58881 13.2085 9.59579 11.9862 12.6524 10.7443C14.1829 10.1222 15.7247 9.49586 16.9104 9.01303C18.096 8.53237 18.9729 8.18003 19.0225 8.16045C19.0698 8.14305 19.0473 8.14305 19.0811 8.14305Z" fill="black"/>
</svg>
