<svg width="140" height="35" viewBox="0 0 140 35" fill="none" xmlns="http://www.w3.org/2000/svg">
<path d="M47 25.6702V9H49.6908V23.3458H58.8444V25.6702H47Z" fill="white"/>
<path d="M66.2471 25.905C65.2701 25.905 64.3812 25.7407 63.5804 25.412C62.7955 25.0676 62.1148 24.6058 61.5382 24.0267C60.9616 23.4319 60.5131 22.7588 60.1928 22.0075C59.8885 21.2405 59.7363 20.4265 59.7363 19.5656C59.7363 18.4073 60.0086 17.3508 60.5532 16.3959C61.0978 15.4255 61.8585 14.6507 62.8356 14.0715C63.8126 13.4767 64.9578 13.1793 66.2712 13.1793C67.5845 13.1793 68.7137 13.4767 69.6587 14.0715C70.6197 14.6507 71.3645 15.4176 71.893 16.3725C72.4216 17.3273 72.6859 18.3525 72.6859 19.4482C72.6859 19.6361 72.6779 19.8161 72.6619 19.9883C72.6458 20.1448 72.6298 20.2778 72.6138 20.3874H62.5473C62.5953 21.1074 62.7955 21.7414 63.1479 22.2892C63.5163 22.8214 63.9808 23.244 64.5414 23.5571C65.1019 23.8545 65.7026 24.0032 66.3432 24.0032C67.048 24.0032 67.7127 23.831 68.3373 23.4867C68.978 23.1423 69.4104 22.6884 69.6347 22.1249L71.893 22.7588C71.6208 23.3536 71.2043 23.8936 70.6437 24.3789C70.0992 24.8485 69.4505 25.2241 68.6977 25.5059C67.9449 25.772 67.1281 25.905 66.2471 25.905ZM62.4752 18.6734H70.0671C70.0191 17.969 69.8109 17.3508 69.4425 16.8186C69.0901 16.2707 68.6336 15.8481 68.0731 15.5507C67.5285 15.2376 66.9198 15.0811 66.2471 15.0811C65.5905 15.0811 64.9818 15.2376 64.4212 15.5507C63.8767 15.8481 63.4282 16.2707 63.0758 16.8186C62.7235 17.3508 62.5232 17.969 62.4752 18.6734Z" fill="white"/>
<path d="M86.1094 25.6702H83.4666V18.7908C83.4666 17.6482 83.2744 16.8107 82.89 16.2785C82.5216 15.7464 81.969 15.4803 81.2323 15.4803C80.7197 15.4803 80.2072 15.6055 79.6946 15.8559C79.1981 16.1064 78.7497 16.4507 78.3492 16.889C77.9488 17.3116 77.6605 17.8047 77.4843 18.3682V25.6702H74.8416V13.3906H77.2441V15.8559C77.5644 15.3081 77.9809 14.8385 78.4934 14.4472C79.0219 14.0402 79.6146 13.7271 80.2713 13.508C80.9279 13.2889 81.6247 13.1793 82.3614 13.1793C83.1142 13.1793 83.7309 13.3123 84.2114 13.5784C84.7079 13.8445 85.0923 14.2124 85.3646 14.682C85.6529 15.1359 85.8451 15.6681 85.9412 16.2785C86.0533 16.8734 86.1094 17.5073 86.1094 18.1804V25.6702Z" fill="white"/>
<path d="M93.6456 25.905C92.5885 25.905 91.5874 25.7407 90.6424 25.412C89.6974 25.0676 88.8886 24.5589 88.2159 23.8858L89.2009 22.1483C89.9217 22.7745 90.6424 23.2284 91.3632 23.5101C92.0999 23.7919 92.8287 23.9328 93.5495 23.9328C94.2862 23.9328 94.8869 23.7997 95.3513 23.5336C95.8158 23.2519 96.0481 22.8449 96.0481 22.3127C96.0481 21.9214 95.928 21.6318 95.6877 21.444C95.4475 21.2561 95.0951 21.0918 94.6306 20.9509C94.1821 20.81 93.6376 20.6535 92.9969 20.4813C92.0999 20.2152 91.3472 19.9413 90.7385 19.6596C90.1299 19.3621 89.6734 19.0021 89.3691 18.5795C89.0648 18.1569 88.9126 17.6169 88.9126 16.9594C88.9126 16.1612 89.1208 15.4803 89.5373 14.9168C89.9537 14.3533 90.5303 13.9228 91.2671 13.6254C92.0199 13.328 92.8848 13.1793 93.8618 13.1793C94.7747 13.1793 95.6156 13.3202 96.3844 13.6019C97.1693 13.868 97.858 14.2906 98.4506 14.8698L97.3214 16.5838C96.7608 16.0829 96.1842 15.715 95.5916 15.4803C95.015 15.2455 94.3903 15.1281 93.7176 15.1281C93.3332 15.1281 92.9649 15.175 92.6125 15.2689C92.2601 15.3472 91.9638 15.5037 91.7236 15.7385C91.4993 15.9577 91.3872 16.2707 91.3872 16.6777C91.3872 17.0064 91.4833 17.2725 91.6755 17.476C91.8677 17.6795 92.156 17.8517 92.5404 17.9925C92.9248 18.1334 93.3973 18.2899 93.9579 18.4621C94.9349 18.7439 95.7678 19.0256 96.4565 19.3074C97.1452 19.5735 97.6738 19.9256 98.0422 20.3639C98.4266 20.7866 98.6188 21.3735 98.6188 22.1249C98.6188 23.3145 98.1623 24.2458 97.2493 24.9189C96.3524 25.5763 95.1511 25.905 93.6456 25.905Z" fill="white"/>
<path d="M101.197 25.6702V9H108.357C109.126 9 109.83 9.15653 110.471 9.46958C111.112 9.78264 111.672 10.1974 112.153 10.714C112.633 11.2305 113.002 11.8097 113.258 12.4514C113.514 13.0932 113.642 13.7506 113.642 14.4237C113.642 15.3472 113.426 16.2316 112.994 17.0768C112.577 17.9064 111.977 18.5795 111.192 19.0961C110.423 19.6126 109.526 19.8709 108.501 19.8709H103.888V25.6702H101.197ZM103.888 17.5464H108.333C108.845 17.5464 109.294 17.4134 109.678 17.1473C110.063 16.8655 110.359 16.4899 110.567 16.0203C110.791 15.5507 110.903 15.0185 110.903 14.4237C110.903 13.8132 110.775 13.2732 110.519 12.8036C110.263 12.334 109.926 11.974 109.51 11.7236C109.11 11.4575 108.669 11.3244 108.189 11.3244H103.888V17.5464Z" fill="white"/>
<path d="M114.776 22.0779C114.776 21.2953 115 20.6144 115.449 20.0352C115.913 19.4404 116.546 18.9865 117.347 18.6734C118.148 18.3447 119.077 18.1804 120.134 18.1804C120.694 18.1804 121.263 18.2195 121.839 18.2978C122.432 18.376 122.953 18.5012 123.401 18.6734V17.8986C123.401 17.0377 123.137 16.3646 122.608 15.8794C122.08 15.3942 121.319 15.1515 120.326 15.1515C119.621 15.1515 118.956 15.2768 118.332 15.5272C117.707 15.762 117.042 16.0985 116.338 16.5368L115.449 14.7994C116.282 14.2515 117.114 13.8445 117.947 13.5784C118.796 13.3123 119.685 13.1793 120.614 13.1793C122.296 13.1793 123.617 13.6176 124.578 14.4941C125.555 15.355 126.044 16.5838 126.044 18.1804V22.7588C126.044 23.0562 126.092 23.2675 126.188 23.3927C126.3 23.518 126.484 23.5884 126.741 23.6041V25.6702C126.5 25.7172 126.284 25.7485 126.092 25.7641C125.9 25.7798 125.74 25.7876 125.611 25.7876C125.051 25.7876 124.626 25.6546 124.338 25.3885C124.05 25.1224 123.882 24.8093 123.834 24.4493L123.761 23.7449C123.217 24.4337 122.52 24.9658 121.671 25.3415C120.822 25.7172 119.965 25.905 119.101 25.905C118.268 25.905 117.523 25.7407 116.866 25.412C116.21 25.0676 115.697 24.6058 115.329 24.0267C114.96 23.4475 114.776 22.7979 114.776 22.0779ZM122.776 22.8292C122.969 22.6258 123.121 22.4223 123.233 22.2188C123.345 22.0153 123.401 21.8353 123.401 21.6788V20.27C122.953 20.0978 122.48 19.9726 121.984 19.8943C121.487 19.8004 120.999 19.7535 120.518 19.7535C119.557 19.7535 118.772 19.9413 118.164 20.317C117.571 20.6926 117.275 21.2092 117.275 21.8666C117.275 22.2266 117.371 22.571 117.563 22.8997C117.771 23.2284 118.059 23.4945 118.428 23.698C118.812 23.9015 119.285 24.0032 119.845 24.0032C120.422 24.0032 120.975 23.8936 121.503 23.6745C122.032 23.4554 122.456 23.1736 122.776 22.8292Z" fill="white"/>
<path d="M129.237 28.5582C129.477 28.5895 129.709 28.6208 129.933 28.6521C130.174 28.699 130.366 28.7225 130.51 28.7225C130.782 28.7225 131.015 28.6364 131.207 28.4642C131.415 28.3077 131.623 28.0103 131.831 27.572C132.04 27.1338 132.296 26.4998 132.6 25.6702L127.435 13.3906H130.198L134.042 23.0406L137.453 13.3906H140L134.306 28.5112C134.13 28.9651 133.874 29.3799 133.537 29.7556C133.201 30.1469 132.784 30.4522 132.288 30.6713C131.791 30.8904 131.207 31 130.534 31C130.342 31 130.142 30.9843 129.933 30.953C129.725 30.9217 129.493 30.8748 129.237 30.8122V28.5582Z" fill="white"/>
<path d="M0 0H12.4264V35C5.56348 35 0 29.2729 0 22.2081V0Z" fill="#6CEA8F"/>
<path d="M15.8782 0H24.5076C29.7501 0 34 4.37488 34 9.77157C34 15.1683 29.7501 19.5431 24.5076 19.5431H15.8782V0Z" fill="#6CEA8F"/>
<path d="M27.9594 22.5635H15.8782V35C22.5504 35 27.9594 29.432 27.9594 22.5635Z" fill="#6CEA8F"/>
</svg>
