<svg width="125" height="31" viewBox="0 0 125 31" fill="none" xmlns="http://www.w3.org/2000/svg">
<path d="M51.7888 11.918V14.0408H44.9541V6.75826H47.6112V11.918H51.7888Z" fill="white"/>
<path d="M59.5731 12.1872V14.0408H52.645V6.75826H59.5419V8.61189H55.302V9.50569H59.3292V11.2121H55.302V12.1872H59.5731Z" fill="white"/>
<path d="M69.1683 6.75826V14.0408H65.7795L63.164 9.44478V14.0408H60.8027V6.75826H64.3005L66.8175 11.273V6.75826H69.1683Z" fill="white"/>
<path d="M73.9588 14.2591C73.2559 14.2591 72.5967 14.1779 71.9811 14.0154C71.3688 13.8495 70.8342 13.6294 70.3776 13.3552V11.4711C70.8481 11.7589 71.367 11.9874 71.9348 12.1567C72.5016 12.3226 73.0778 12.4055 73.6626 12.4055C74.0847 12.4055 74.398 12.3683 74.6018 12.2938C74.8064 12.2194 74.9083 12.1008 74.9083 11.9383C74.9083 11.7961 74.8372 11.6827 74.6951 11.598C74.5539 11.5134 74.3013 11.4406 73.9374 11.3797L72.8792 11.1917C71.9965 11.036 71.3497 10.7702 70.9381 10.3945C70.5298 10.0186 70.3257 9.52093 70.3257 8.90135C70.3257 8.43073 70.4658 8.01944 70.7461 7.66729C71.0298 7.3118 71.4553 7.0359 72.023 6.83951C72.5932 6.63977 73.2961 6.5399 74.13 6.5399C74.8424 6.5399 75.4562 6.61095 75.9717 6.75313C76.4905 6.8954 76.9186 7.06807 77.2542 7.27116V9.07914C76.9391 8.90646 76.5376 8.75749 76.0496 8.63223C75.5658 8.50698 75.0393 8.4443 74.4725 8.4443C73.559 8.4443 73.1018 8.58992 73.1018 8.88107C73.1018 8.96234 73.1266 9.03004 73.1746 9.08416C73.2268 9.13502 73.315 9.17901 73.4391 9.21621C73.5641 9.25349 73.7422 9.28734 73.9742 9.31783L75.1626 9.50568C75.7473 9.60052 76.2242 9.74103 76.5949 9.9272C76.9648 10.11 77.2413 10.3521 77.4254 10.6534C77.6086 10.9514 77.7003 11.3204 77.7003 11.7605C77.7003 12.2617 77.5444 12.7018 77.2328 13.081C76.9254 13.4568 76.4871 13.7479 75.9203 13.9544C75.3561 14.1576 74.702 14.2591 73.9588 14.2591Z" fill="white"/>
<path d="M50.097 16.4555C50.7405 16.4555 51.2819 16.5672 51.7213 16.7906C52.1642 17.0107 52.4963 17.3222 52.7177 17.725C52.9426 18.128 53.055 18.6003 53.055 19.142C53.055 19.677 52.927 20.1492 52.6711 20.5589C52.4185 20.9651 52.0396 21.2834 51.5345 21.5137C51.0294 21.7405 50.4135 21.8539 49.687 21.8539H47.6112V23.7482H44.9541V16.4555H50.097ZM48.9916 20.2034C49.424 20.2034 49.7544 20.1171 49.9828 19.9444C50.2146 19.7684 50.3306 19.5246 50.3306 19.213C50.3306 18.9118 50.2267 18.6782 50.0192 18.5123C49.8151 18.343 49.5227 18.2583 49.1421 18.2583H47.6112V20.2034H48.9916Z" fill="white"/>
<path d="M59.0125 23.7482L56.6097 20.762V23.7482H53.9526V16.4656H59.1942C59.7753 16.4656 60.2822 16.5672 60.7147 16.7703C61.1472 16.9735 61.4793 17.2612 61.7111 17.6336C61.9463 18.0027 62.0639 18.4327 62.0639 18.9236C62.0639 19.3502 61.9758 19.7328 61.7993 20.0713C61.6228 20.4065 61.3738 20.6757 61.052 20.8788C60.7302 21.0786 60.3566 21.1954 59.9311 21.2292L62.1366 23.7482H59.0125ZM58.1095 19.9952C58.5005 19.9952 58.798 19.9207 59.0021 19.7717C59.2062 19.6228 59.3083 19.4061 59.3083 19.1216C59.3083 18.8509 59.2132 18.646 59.0228 18.5072C58.836 18.3683 58.5558 18.299 58.1822 18.299H56.6097V19.9952H58.1095Z" fill="white"/>
<path d="M67.6221 23.9869C66.6569 23.9869 65.8075 23.8125 65.0741 23.4638C64.3406 23.115 63.775 22.6427 63.3771 22.0469C62.9792 21.451 62.7803 20.7908 62.7803 20.0663C62.7803 19.3282 62.9774 18.6697 63.3719 18.0908C63.7697 17.5084 64.3354 17.053 65.0689 16.7246C65.8024 16.3928 66.6569 16.2269 67.6325 16.2269C68.6012 16.2269 69.4507 16.3928 70.1806 16.7246C70.9141 17.053 71.478 17.5084 71.8724 18.0908C72.2707 18.6697 72.4693 19.3282 72.4693 20.0663C72.4693 20.7942 72.269 21.4561 71.8673 22.052C71.4694 22.6479 70.9037 23.1201 70.1703 23.4688C69.4368 23.8142 68.5874 23.9869 67.6221 23.9869ZM67.6221 21.8742C68.02 21.8742 68.3695 21.7997 68.6704 21.6507C68.9715 21.4984 69.2032 21.2868 69.3659 21.0159C69.5285 20.7451 69.6097 20.4353 69.6097 20.0866C69.6097 19.7412 69.5285 19.4365 69.3659 19.1725C69.2032 18.9084 68.9715 18.7036 68.6704 18.5579C68.3695 18.4124 68.02 18.3396 67.6221 18.3396C67.2209 18.3396 66.8697 18.4124 66.5686 18.5579C66.2677 18.7036 66.0341 18.9084 65.8681 19.1725C65.7054 19.4365 65.6242 19.7412 65.6242 20.0866C65.6242 20.4353 65.7054 20.7451 65.8681 21.0159C66.0341 21.2868 66.2677 21.4984 66.5686 21.6507C66.8697 21.7997 67.2209 21.8742 67.6221 21.8742Z" fill="white"/>
<path d="M80.5599 18.5173H78.0273V23.7482H75.3698V18.5173H72.791V16.4656H80.5599V18.5173Z" fill="white"/>
<path d="M85.7131 23.9869C84.7473 23.9869 83.898 23.8125 83.1643 23.4638C82.4314 23.115 81.8655 22.6427 81.4674 22.0469C81.0701 21.451 80.8706 20.7908 80.8706 20.0663C80.8706 19.3282 81.0684 18.6697 81.4622 18.0908C81.8603 17.5084 82.4263 17.053 83.1591 16.7246C83.8929 16.3928 84.7473 16.2269 85.7233 16.2269C86.6917 16.2269 87.541 16.3928 88.2713 16.7246C89.005 17.053 89.5684 17.5084 89.9631 18.0908C90.3612 18.6697 90.5598 19.3282 90.5598 20.0663C90.5598 20.7942 90.3595 21.4561 89.9579 22.052C89.5598 22.6479 88.9939 23.1201 88.261 23.4688C87.5273 23.8142 86.678 23.9869 85.7131 23.9869ZM85.7131 21.8742C86.1103 21.8742 86.4596 21.7997 86.761 21.6507C87.0624 21.4984 87.2936 21.2868 87.4562 21.0159C87.6189 20.7451 87.7002 20.4353 87.7002 20.0866C87.7002 19.7412 87.6189 19.4365 87.4562 19.1725C87.2936 18.9084 87.0624 18.7036 86.761 18.5579C86.4596 18.4124 86.1103 18.3396 85.7131 18.3396C85.3115 18.3396 84.9605 18.4124 84.6591 18.5579C84.3586 18.7036 84.1249 18.9084 83.9588 19.1725C83.7961 19.4365 83.7148 19.7412 83.7148 20.0866C83.7148 20.4353 83.7961 20.7451 83.9588 21.0159C84.1249 21.2868 84.3586 21.4984 84.6591 21.6507C84.9605 21.7997 85.3115 21.8742 85.7131 21.8742Z" fill="white"/>
<path d="M96.1027 23.9869C95.0925 23.9869 94.22 23.821 93.4872 23.4892C92.7568 23.154 92.2012 22.697 91.8211 22.118C91.4401 21.5356 91.25 20.8788 91.25 20.1475C91.25 19.4061 91.4435 18.7391 91.8313 18.1466C92.2192 17.5507 92.7842 17.0818 93.5282 16.7398C94.2723 16.3979 95.1558 16.2269 96.1807 16.2269C96.8065 16.2269 97.3793 16.2879 97.8981 16.4097C98.4204 16.5316 98.917 16.7077 99.387 16.9379V19.0861C99.0865 18.8796 98.7089 18.712 98.256 18.5833C97.8065 18.4547 97.3271 18.3904 96.8185 18.3904C96.2611 18.3904 95.7825 18.4615 95.381 18.6037C94.9794 18.7459 94.6738 18.9456 94.4623 19.2029C94.2551 19.4569 94.1515 19.7514 94.1515 20.0866C94.1515 20.4251 94.2568 20.7248 94.4675 20.9855C94.6824 21.2428 94.9897 21.4442 95.3913 21.5898C95.7928 21.732 96.2688 21.8031 96.8185 21.8031C97.3442 21.8031 97.8339 21.7354 98.2868 21.6C98.7406 21.4611 99.1139 21.2766 99.4084 21.0464V23.1439C98.8998 23.435 98.3861 23.6483 97.8664 23.7837C97.351 23.9192 96.7628 23.9869 96.1027 23.9869Z" fill="white"/>
<path d="M105.091 23.9869C104.126 23.9869 103.276 23.8125 102.543 23.4638C101.809 23.115 101.243 22.6427 100.846 22.0469C100.448 21.451 100.249 20.7908 100.249 20.0663C100.249 19.3282 100.446 18.6697 100.841 18.0908C101.238 17.5084 101.804 17.053 102.538 16.7246C103.27 16.3928 104.126 16.2269 105.101 16.2269C106.07 16.2269 106.919 16.3928 107.649 16.7246C108.383 17.053 108.947 17.5084 109.341 18.0908C109.739 18.6697 109.937 19.3282 109.937 20.0663C109.937 20.7942 109.737 21.4561 109.335 22.052C108.938 22.6479 108.372 23.1201 107.639 23.4688C106.905 23.8142 106.056 23.9869 105.091 23.9869ZM105.091 21.8742C105.489 21.8742 105.838 21.7997 106.139 21.6507C106.44 21.4984 106.672 21.2868 106.835 21.0159C106.997 20.7451 107.079 20.4353 107.079 20.0866C107.079 19.7412 106.997 19.4365 106.835 19.1725C106.672 18.9084 106.44 18.7036 106.139 18.5579C105.838 18.4124 105.489 18.3396 105.091 18.3396C104.689 18.3396 104.338 18.4124 104.038 18.5579C103.736 18.7036 103.502 18.9084 103.336 19.1725C103.174 19.4365 103.092 19.7412 103.092 20.0866C103.092 20.4353 103.174 20.7451 103.336 21.0159C103.502 21.2868 103.736 21.4984 104.038 21.6507C104.338 21.7997 104.689 21.8742 105.091 21.8742Z" fill="white"/>
<path d="M117.821 21.6253V23.7482H110.986V16.4656H113.643V21.6253H117.821Z" fill="white"/>
<path fill-rule="evenodd" clip-rule="evenodd" d="M28.431 10.321C29.7668 9.23523 31.2574 8.82209 32.6868 8.92649C34.2117 9.03792 35.6227 9.73417 36.6765 10.7454C37.7303 11.7568 38.4543 13.1096 38.5701 14.5694C38.6871 16.0427 38.1808 17.5856 36.8457 18.9399C36.7236 19.0645 36.5987 19.1877 36.4713 19.3092C30.416 25.1198 22.3722 25.1351 22.2899 25.1351C22.2488 25.1351 14.1791 25.1348 8.10799 19.3084L8.10662 19.3071C7.98128 19.1861 7.8579 19.0643 7.73633 18.9418L7.7353 18.9407C6.3996 17.5877 5.89275 16.0451 6.00936 14.5718C6.12485 13.1122 6.84831 11.7593 7.90182 10.7476C8.95533 9.73592 10.3662 9.03918 11.8913 8.92732C13.3207 8.82243 14.8115 9.23507 16.1481 10.3203C16.2918 8.6464 17.0407 7.34364 18.1276 6.44808C19.2869 5.49286 20.7977 5.02702 22.2895 5.02702C23.7814 5.02702 25.2921 5.49286 26.4514 6.44808C27.5386 7.34381 28.2874 8.64682 28.431 10.321ZM26.8388 16.4775C26.6732 16.4775 26.6159 16.7072 26.7215 16.8287C26.9087 17.0442 27.0212 17.3214 27.0212 17.6237C27.0212 18.3099 26.4416 18.8662 25.7267 18.8662C25.0117 18.8662 24.432 18.3099 24.432 17.6237C24.432 17.587 24.3821 17.5688 24.3596 17.5985C24.1554 17.8676 24.0176 18.1698 23.9609 18.4871C23.9291 18.6657 23.7778 18.8136 23.5876 18.8136H23.4826C23.2344 18.8136 23.0297 18.6206 23.0664 18.3867C23.3174 16.7836 24.9637 15.6211 26.8388 15.6211C28.714 15.6211 30.3602 16.7836 30.6113 18.3867C30.6479 18.6206 30.4432 18.8136 30.1951 18.8136C29.9469 18.8136 29.7505 18.6197 29.6965 18.3888C29.4511 17.338 28.3133 16.4775 26.8388 16.4775ZM15.3429 17.6237C15.3429 17.5753 15.2775 17.5493 15.2468 17.5879C15.0285 17.8612 14.8797 18.1708 14.8168 18.497C14.7796 18.6897 14.6163 18.8498 14.4107 18.8498H14.3337C14.0856 18.8498 13.8808 18.6568 13.9174 18.4229C14.1683 16.819 15.8148 15.6572 17.6899 15.6572C19.565 15.6572 21.2115 16.819 21.4624 18.4229C21.499 18.6568 21.2943 18.8498 21.0462 18.8498C20.7981 18.8498 20.6016 18.6558 20.5476 18.425C20.3023 17.3736 19.1646 16.5137 17.6899 16.5137C17.5558 16.5137 17.5068 16.6943 17.5965 16.7892C17.8051 17.0098 17.932 17.3025 17.932 17.6237C17.932 18.3099 17.3525 18.8662 16.6375 18.8662C15.9225 18.8662 15.3429 18.3099 15.3429 17.6237ZM23.7297 20.6199C23.9051 20.4525 24.1761 20.3712 24.3938 20.4846C24.6116 20.598 24.6942 20.8613 24.5373 21.0445C24.0261 21.6412 23.1987 22.0192 22.2861 22.0192C21.3739 22.0192 20.5446 21.6451 20.0328 21.044C19.8765 20.8603 19.9601 20.5972 20.1783 20.4846C20.3964 20.3719 20.6671 20.4543 20.8421 20.6219C21.1795 20.9446 21.6914 21.1628 22.2861 21.1628C22.8791 21.1628 23.3916 20.9424 23.7297 20.6199Z" fill="white"/>
</svg>
