<svg width="27" height="26" viewBox="0 0 27 26" fill="none" xmlns="http://www.w3.org/2000/svg">
<rect x="0.25" width="26" height="26" rx="13" fill="#6CEA8F"/>
<path d="M6.28418 6.85H5.9833L6.16439 7.09028L11.4936 14.1612L6.14034 19.8974L5.90484 20.1497H6.25H7.47416H7.53935L7.58383 20.1021L12.2242 15.1291L15.9655 20.0903L16.0105 20.15H16.0852H20.25H20.5509L20.3698 19.9097L14.7361 12.4367L19.7131 7.10233L19.9486 6.85H19.6035H18.3793H18.3141L18.2696 6.89766L14.0058 11.4666L10.5696 6.90969L10.5246 6.85H10.4498H6.28418ZM16.6104 18.955L8.38545 8.04476H9.92354L18.1479 18.955H16.6104Z" fill="black" stroke="black" stroke-width="0.3"/>
</svg>
